# xmcd
#
# Track frame offsets:
#	150
#	8943
#	27282
#	45568
#	68377
#	86765
#	103748
#	115320
#	132926
#	152324
#	166738
#	186005
#	209432
#	226223
#	236082
#	253764
#	270396
#	288764
#	305085
#	319004
#	330137
#
# Disc length: 4626 seconds
#
# Revision: 0
# Processed by: cddbd v1.5.2PL0 Copyright (c) Steve Scherf et al.
# Submitted via: EasyCDDAExtractor 8.1.2.3
#
DISCID=0f121015
DTITLE=Fat Cap - A l'arrache
DYEAR=2007
DGENRE=Rap fr
TTITLE0=Intro
TTITLE1=Destination
TTITLE2=Fais tourner le son fort
TTITLE3=Y'a ceux qui...
TTITLE4=5/5
TTITLE5=Mes racines
TTITLE6=Rien à foutre (interlude)
TTITLE7=Marche ou creve
TTITLE8=Outrage
TTITLE9=Dans la tete
TTITLE10=Irreversible
TTITLE11=Micro-bio-logique
TTITLE12=Systeme D
TTITLE13=Qualite street (interlude)
TTITLE14=27 ans
TTITLE15=Ancre dans le barrio
TTITLE16=Fais tourner le son fort (instru)
TTITLE17=Y'a ceux qui... (instru)
TTITLE18=Systeme D (instru)
TTITLE19=Dans la tete (instru)
TTITLE20=Marche ou creve (instru)
EXTD=
EXTT0=
EXTT1=
EXTT2=
EXTT3=
EXTT4=
EXTT5=
EXTT6=
EXTT7=
EXTT8=
EXTT9=
EXTT10=
EXTT11=
EXTT12=
EXTT13=
EXTT14=
EXTT15=
EXTT16=
EXTT17=
EXTT18=
EXTT19=
EXTT20=
PLAYORDER=
